# xmcd
#
# Track frame offsets:
#	150
#	14936
#	32318
#	48585
#	67331
#	86492
#	105268
#	124299
#	140661
#	160585
#
# Disc length: 2361 seconds
#
# Revision: 1
# Processed by: cddbd v1.5.2PL0 Copyright (c) Steve Scherf et al.
# Submitted via: audiograbber 1.83.01
#
DISCID=8709370a
DTITLE=Marty Raybon - What I Came Here To Do
DYEAR=2008
DGENRE=Christian Country
TTITLE0=All Came Through The Blood
TTITLE1=Beulah Land
TTITLE2=The Crying Tree Of Mercy
TTITLE3=One To The Highest Power
TTITLE4=What I Came Here To Do
TTITLE5=What Daddy Wouldn't Let Him In
TTITLE6=The Altered Life
TTITLE7=Something To Die For (with Jessica King)
TTITLE8=The One That Hung The Moon
TTITLE9=Get Up In Jesus' Name
EXTD=Song order on disc label and case are grossly incorrect.
EXTT0=
EXTT1=
EXTT2=
EXTT3=Brief preaching introduction
EXTT4=
EXTT5=
EXTT6=
EXTT7=
EXTT8=
EXTT9=
PLAYORDER=
